<svg width="17px" height="14px" viewBox="0 0 17 14" version="1.1" xmlns="http://www.w3.org/2000/svg" xmlns:xlink="http://www.w3.org/1999/xlink">
    <g id="v2" stroke="none" stroke-width="1" fill="none" fill-rule="evenodd">
        <g id="1280" transform="translate(-1056.000000, -75.000000)" fill="#9B9B9B" fill-rule="nonzero">
            <g id="Group-5" transform="translate(82.000000, 55.000000)">
                <g id="Group" transform="translate(973.000000, 19.000000)">
                    <path d="M17.9337172,4.87274964 C17.866376,4.77793318 17.757373,4.72154612 17.6408278,4.72154612 L4.53442727,4.72154612 L3.56579092,1.26236146 C3.52251295,1.10720725 3.38100656,1 3.21992632,1 L1.35915326,1 C1.16090066,1 1,1.16090066 1,1.35915326 C1,1.55740587 1.16090066,1.71830653 1.35915326,1.71830653 L2.94768815,1.71830653 L5.21071287,9.800512 C4.38035052,9.8136211 3.70855434,10.4922412 3.70855434,11.3256563 C3.70855434,12.167332 4.39328004,12.8520577 5.23495571,12.8520577 L5.69521062,12.8520577 C5.63577075,12.9924866 5.60290823,13.146743 5.60290823,13.3085415 C5.60290823,13.9562744 6.12996564,14.4833318 6.77751898,14.4833318 C7.42525189,14.4833318 7.95230931,13.9562744 7.95230931,13.3085415 C7.95230931,13.146743 7.91926721,12.9924866 7.86000692,12.8520577 L11.6630808,12.8520577 C11.5887361,13.0061345 11.5458173,13.1781689 11.5458173,13.3606187 C11.5458173,14.0083516 12.0728747,14.5354091 12.720428,14.5354091 C13.3679814,14.5354091 13.8950388,14.0083516 13.8950388,13.3606187 C13.8950388,13.1783484 13.85212,13.006314 13.7777752,12.8520577 L14.408628,12.8520577 C14.6068806,12.8520577 14.7677812,12.691157 14.7677812,12.4929044 C14.7677812,12.2946518 14.6068806,12.1337512 14.408628,12.1337512 L5.23477613,12.1337512 C4.78924651,12.1337512 4.42668129,11.771186 4.42668129,11.3256563 C4.42668129,10.8801267 4.78924651,10.5175615 5.23477613,10.5175615 L5.68299941,10.5175615 C5.68317898,10.5175615 5.68335856,10.5175615 5.68353814,10.5175615 C5.68371771,10.5175615 5.68389729,10.5175615 5.68425644,10.5175615 L15.8730754,10.5175615 C16.0530112,10.5175615 16.2006232,10.3846748 16.2268414,10.2121016 L17.9798684,5.19921996 C18.0182978,5.08931906 18.0010585,4.96774568 17.9337172,4.87274964 Z M12.7202485,13.8167434 C12.4686616,13.8167434 12.2639442,13.612026 12.2639442,13.3602596 C12.2639442,13.1084931 12.4686616,12.9037758 12.7202485,12.9037758 C12.9718353,12.9037758 13.1765527,13.1084931 13.1765527,13.3602596 C13.1765527,13.612026 12.9718353,13.8167434 12.7202485,13.8167434 Z M7.2338232,13.3081824 C7.2338232,13.5597692 7.02892626,13.7646662 6.7773394,13.7646662 C6.52575254,13.7646662 6.32103518,13.5599488 6.32103518,13.3081824 C6.32103518,13.0564159 6.52575254,12.8516986 6.7773394,12.8516986 C7.02892626,12.8516986 7.2338232,13.0565955 7.2338232,13.3081824 Z M16.8557187,6.23753205 L14.3842055,6.23753205 L14.4975184,5.43967307 L17.1347808,5.43967307 L16.8557187,6.23753205 Z M16.2381547,8.00348865 L14.133337,8.00348865 L14.282206,6.95601815 L16.6046706,6.95601815 L16.2381547,8.00348865 Z M15.6103548,9.79925496 L13.8781586,9.79925496 L14.0311579,8.72179517 L15.9872861,8.72179517 L15.6103548,9.79925496 Z M11.3125472,9.79925496 L11.3125472,8.72179517 L13.3056683,8.72179517 L13.1524894,9.79925496 L11.3125472,9.79925496 Z M8.75429854,9.79925496 L8.60111968,8.72179517 L10.5942407,8.72179517 L10.5942407,9.79925496 L8.75429854,9.79925496 Z M5.95613546,9.79925496 L5.65444672,8.72179517 L7.87563008,8.72179517 L8.02862937,9.79925496 L5.95613546,9.79925496 Z M11.3125472,6.23753205 L11.3125472,5.43967307 L13.7718492,5.43967307 L13.6585364,6.23753205 L11.3125472,6.23753205 Z M13.5565368,6.95583857 L13.4076678,8.00330907 L11.3125472,8.00330907 L11.3125472,6.95583857 L13.5565368,6.95583857 Z M10.5942407,6.23753205 L8.24807202,6.23753205 L8.13475916,5.43967307 L10.5940611,5.43967307 L10.5940611,6.23753205 L10.5942407,6.23753205 Z M10.5942407,6.95583857 L10.5942407,8.00330907 L8.49912015,8.00330907 L8.35025112,6.95583857 L10.5942407,6.95583857 Z M7.77345098,8.00348865 L5.4533209,8.00348865 L5.15989268,6.95601815 L7.62458195,6.95601815 L7.77345098,8.00348865 Z M7.40908999,5.43985265 L7.52240285,6.23771162 L4.95894643,6.23771162 L4.7355531,5.43985265 L7.40908999,5.43985265 Z" id="Shape"></path>
                </g>
            </g>
        </g>
    </g>
</svg>
